<svg xmlns="http://www.w3.org/2000/svg" width="795" height="760" viewBox="0 0 795 760">
<g>
<path d="M 387.29 671.77 C383.91,673.29 378.28,673.49 335.50,673.65 C276.06,673.87 260.67,672.67 251.71,667.13 C243.31,661.93 240.53,656.50 239.51,643.30 L 238.79 634.09 L 234.65 633.58 C232.37,633.30 224.88,632.35 218.00,631.47 C155.49,623.51 109.98,591.90 94.25,545.50 C89.20,530.62 87.98,514.03 91.50,508.18 C96.79,499.40 105.85,498.28 118.72,504.82 C123.24,507.11 130.89,510.16 135.72,511.58 C143.47,513.87 145.74,514.11 155.00,513.67 C184.70,512.27 205.38,497.27 230.86,458.68 C234.79,452.74 239.12,446.40 240.49,444.60 L 242.98 441.33 L 237.67 435.19 C229.94,426.28 226.66,419.08 227.23,412.30 C227.72,406.35 229.85,402.75 234.92,399.30 C240.91,395.22 246.95,395.28 261.75,399.58 C263.51,400.09 264.00,399.83 264.00,398.37 C263.99,397.07 261.92,395.43 257.25,393.02 C249.85,389.21 242.64,383.14 240.42,378.85 C238.60,375.33 238.59,367.68 240.41,364.20 C244.24,356.88 251.29,353.51 265.04,352.45 C270.24,352.05 274.83,351.23 275.23,350.61 C275.64,350.00 275.98,347.64 275.98,345.36 C276.00,341.38 275.86,341.20 272.30,340.53 C263.57,338.89 255.48,333.23 252.39,326.60 C248.19,317.58 249.64,308.15 256.30,301.13 C259.29,297.98 271.94,291.00 274.66,291.00 C276.41,291.00 276.99,289.67 276.34,287.17 C275.87,285.38 275.04,285.00 271.56,285.00 C252.68,285.00 239.65,267.68 247.05,252.40 C249.50,247.34 256.15,240.98 262.15,237.95 C264.54,236.74 266.61,235.66 266.75,235.54 C266.89,235.43 266.33,230.65 265.52,224.92 C263.60,211.43 263.58,185.15 265.47,173.47 C272.91,127.62 298.76,91.56 337.50,73.01 C358.93,62.74 375.74,59.56 404.50,60.32 C424.61,60.85 436.67,62.90 450.50,68.12 C456.18,70.27 458.38,70.42 492.00,71.02 C532.50,71.75 536.08,72.30 552.50,80.44 C568.25,88.24 580.03,99.74 587.90,115.00 C598.90,136.31 603.95,167.85 598.16,179.00 C595.11,184.88 589.66,190.48 583.75,193.82 C579.72,196.10 579.00,196.96 579.00,199.54 C579.00,208.83 572.36,224.26 564.82,232.50 C555.07,243.17 544.25,248.88 521.50,255.35 C498.28,261.95 486.83,264.96 475.20,267.51 C469.54,268.75 464.65,270.01 464.35,270.32 C463.57,271.09 469.17,292.36 470.37,293.17 C470.92,293.54 513.97,293.89 566.04,293.95 C620.77,294.01 662.07,294.45 663.94,294.98 C672.79,297.52 680.48,304.50 684.85,313.95 C687.35,319.36 687.43,320.19 687.96,346.40 L 688.50 373.29 L 693.09 374.63 C699.30,376.44 706.17,382.69 709.10,389.21 C711.25,393.99 711.48,395.89 711.49,409.00 C711.50,422.88 711.38,423.74 708.69,429.22 C705.33,436.07 699.50,441.34 692.86,443.55 L 688.00 445.16 L 688.00 492.37 C688.00,545.34 687.79,547.32 681.21,557.00 C679.16,560.03 675.30,563.96 672.64,565.74 C671.13,566.75 669.89,567.60 668.58,568.32 C661.80,572.00 653.01,572.00 593.24,572.00 L 589.45 572.00 L 521.27 572.00 L 519.01 578.75 C516.60,585.94 511.60,595.19 506.91,601.11 C503.69,605.18 503.96,606.00 508.54,606.00 C514.08,606.00 530.74,610.75 537.25,614.18 C552.81,622.39 562.00,637.97 562.00,656.13 C562.00,664.60 559.43,668.24 552.22,670.01 C545.31,671.71 471.75,672.49 450.00,671.10 C428.34,669.71 422.37,668.58 415.78,664.62 C408.65,660.33 406.16,655.26 404.96,642.57 C404.28,635.39 403.50,632.10 401.95,629.93 C400.80,628.32 399.59,627.00 399.25,627.00 C398.51,627.00 386.63,630.22 386.20,630.54 C386.04,630.66 387.23,633.40 388.85,636.63 C393.88,646.66 395.47,659.56 392.54,666.57 C391.53,668.97 389.89,670.60 387.29,671.77 ZM 313.00 660.36 C318.23,660.50 327.45,660.59 333.50,660.56 L 344.50 660.50 L 344.37 655.36 C344.24,650.33 339.85,640.00 337.84,640.00 C337.38,640.00 337.00,639.55 337.00,639.00 C337.00,637.49 341.72,637.80 345.07,639.54 C349.12,641.63 353.73,648.28 355.61,654.72 L 357.16 660.06 L 368.33 659.78 L 379.50 659.50 L 379.30 654.45 C379.06,648.29 376.05,640.98 371.43,635.35 C362.65,624.63 345.51,619.85 309.50,618.08 C301.31,617.68 296.33,617.08 297.50,616.63 C298.60,616.22 301.98,614.94 305.00,613.79 C323.02,606.97 336.74,594.60 344.97,577.76 C352.74,561.85 355.21,550.90 355.31,532.00 C355.42,512.41 353.20,501.09 346.63,487.68 C337.43,468.89 324.36,457.30 301.00,447.21 C298.58,446.17 298.61,446.13 302.00,446.08 C307.65,446.00 317.50,448.72 324.75,452.38 C351.61,465.90 367.00,492.24 368.71,527.59 C370.09,556.26 362.80,580.97 347.28,600.25 C343.85,604.51 341.14,608.03 341.27,608.07 C341.40,608.11 345.55,608.99 350.50,610.03 C355.84,611.15 362.75,613.54 367.48,615.88 L 375.46 619.85 L 386.69 616.95 C416.22,609.34 450.77,592.47 470.25,576.16 L 475.01 572.18 L 459.25 571.82 C444.29,571.49 443.23,571.33 438.16,568.67 C430.30,564.56 424.68,558.89 421.39,551.75 L 418.50 545.50 L 417.88 463.19 L 402.69 463.33 C388.16,463.45 370.14,461.39 364.50,458.95 C356.93,455.67 350.05,453.28 349.57,453.76 C349.26,454.08 349.00,453.87 349.00,453.30 C349.00,452.73 347.09,451.02 344.75,449.49 C334.62,442.88 325.90,430.19 322.53,417.14 C320.51,409.32 319.49,395.92 320.42,389.66 C321.11,385.07 323.00,383.11 323.00,386.99 C323.00,390.49 329.12,408.24 333.12,416.36 C341.82,433.99 352.92,442.07 376.23,447.73 C386.48,450.22 415.10,450.25 423.00,447.78 C430.82,445.33 438.13,440.25 440.35,435.72 C442.04,432.25 442.06,431.74 440.63,429.55 C439.02,427.10 430.66,424.00 425.66,424.00 C422.67,424.00 421.15,422.15 423.12,420.92 C423.88,420.44 426.52,419.78 429.00,419.45 C435.76,418.53 439.92,417.03 440.86,415.17 C442.23,412.46 440.25,407.43 436.51,404.14 C431.11,399.40 426.72,398.67 408.34,399.45 C393.43,400.08 391.88,399.98 388.34,398.16 C382.90,395.36 380.14,392.01 372.95,379.50 C369.47,373.45 364.65,365.69 362.23,362.25 C359.81,358.81 358.39,356.00 359.07,356.00 C360.90,356.00 369.78,361.79 375.12,366.46 C377.66,368.68 382.73,373.96 386.38,378.19 C390.04,382.41 393.96,386.17 395.09,386.53 C396.22,386.89 401.84,386.86 407.57,386.47 L 418.00 385.76 L 418.02 355.63 C418.04,339.06 418.49,323.57 419.04,321.21 C422.47,306.34 432.83,296.52 447.87,293.87 C450.84,293.34 452.58,293.05 453.36,292.04 C454.44,290.61 453.64,287.75 451.69,280.81 L 451.60 280.50 L 449.36 272.50 L 432.93 273.00 C400.87,273.98 378.05,273.49 370.50,271.66 C344.58,265.39 327.55,250.20 321.96,228.35 C319.99,220.65 319.31,210.00 320.79,210.00 C321.22,210.00 323.28,214.03 325.37,218.95 C330.18,230.31 333.68,235.56 340.88,242.23 C347.86,248.69 357.86,254.10 368.55,257.20 C376.03,259.36 378.17,259.50 404.50,259.46 C437.60,259.41 455.77,257.92 472.35,253.89 C491.41,249.26 527.81,239.10 535.27,236.33 C542.66,233.58 551.87,227.31 556.42,221.93 C559.44,218.36 563.32,210.49 564.41,205.75 C565.18,202.37 564.36,202.30 556.41,205.03 C542.16,209.94 522.83,213.43 501.00,215.03 C469.26,217.36 435.73,211.66 417.72,200.87 L 410.50 196.54 L 398.50 196.86 C385.16,197.21 379.71,196.24 370.35,191.87 C362.33,188.12 358.00,183.27 358.00,178.04 C358.00,175.02 358.59,173.68 360.63,172.07 C363.30,169.98 366.67,169.42 368.50,170.77 C369.05,171.17 370.29,173.22 371.26,175.31 C372.57,178.14 374.18,179.63 377.50,181.10 C383.90,183.94 396.29,185.11 407.84,183.99 C413.15,183.47 419.22,183.04 421.33,183.03 C425.06,183.00 425.14,183.08 424.51,185.97 C423.93,188.57 424.27,189.19 427.18,190.99 C431.70,193.77 443.85,197.54 455.15,199.66 C468.44,202.16 504.13,202.14 519.50,199.63 C553.30,194.10 580.58,183.51 585.50,174.00 C588.38,168.42 586.45,148.52 581.67,134.48 C573.45,110.37 557.61,94.94 533.83,87.87 C527.12,85.88 523.38,85.63 489.50,84.98 L 452.50 84.27 L 443.28 81.14 C411.36,70.33 372.11,72.46 343.80,86.54 C320.16,98.31 304.02,114.62 292.52,138.37 C282.30,159.49 278.77,175.08 278.76,199.00 C278.76,207.52 279.25,217.65 279.86,221.50 C281.88,234.27 288.41,266.49 289.08,267.00 C289.44,267.27 289.69,268.40 289.64,269.50 C289.47,273.37 291.27,288.00 291.92,288.00 C293.32,288.00 292.25,335.43 290.58,347.50 C288.17,364.91 283.58,384.22 277.44,402.70 C271.36,421.03 265.68,433.02 257.34,445.16 C243.26,465.62 238.19,473.51 238.64,474.23 C238.90,474.65 238.72,475.00 238.22,475.00 C237.73,475.00 234.25,479.12 230.49,484.17 C210.25,511.26 189.15,524.44 160.27,528.03 C145.72,529.84 129.21,526.53 112.33,518.44 C108.38,516.55 104.90,515.00 104.58,515.00 C103.27,515.00 104.13,526.20 106.00,533.50 C109.22,546.08 113.95,555.65 122.50,566.89 C139.82,589.67 165.09,605.23 197.26,612.92 C208.62,615.64 223.89,618.19 224.94,617.54 C225.42,617.24 224.47,614.52 222.83,611.50 C218.87,604.19 216.48,597.20 214.64,587.50 C212.87,578.22 211.88,560.00 213.14,560.00 C213.61,560.00 214.00,560.91 214.00,562.01 C214.00,563.12 214.39,564.81 214.88,565.76 C215.36,566.72 216.95,571.41 218.42,576.19 C224.07,594.63 235.41,613.62 246.77,623.69 L 251.50 627.88 L 252.58 640.59 C253.22,648.14 253.29,652.29 255.38,654.68 C258.19,657.91 264.65,657.95 281.09,658.86 C293.41,659.54 307.77,660.22 313.00,660.36 ZM 444.50 557.12 C448.30,558.86 453.76,558.96 552.28,558.98 C558.12,558.98 563.64,558.98 568.86,558.98 C651.19,559.01 658.87,559.02 664.08,555.43 C664.95,554.84 665.74,554.14 666.80,553.34 C668.68,551.90 671.06,548.88 672.09,546.62 C673.83,542.77 673.96,539.22 673.94,492.50 L 673.92 442.50 L 670.08 439.84 C667.63,438.15 665.25,435.17 663.51,431.61 C661.01,426.50 660.83,425.38 661.41,418.26 C662.27,407.58 662.27,407.27 661.48,400.50 C660.38,391.12 662.06,386.55 669.08,379.82 L 675.00 374.13 L 675.00 350.73 C675.00,325.16 674.33,320.74 669.45,314.35 C667.96,312.39 664.88,309.94 662.62,308.91 C658.68,307.13 653.88,307.04 553.15,307.02 C546.23,307.02 539.74,307.02 533.67,307.02 C452.28,306.98 444.57,306.98 440.28,310.80 C439.51,311.49 438.85,312.30 437.90,313.25 C431.49,319.66 431.53,319.42 431.19,354.54 L 430.88 386.58 L 436.38 388.86 C446.87,393.21 452.81,400.81 455.45,413.25 L 456.04 416.00 L 556.02 416.00 C646.09,416.00 656.00,416.16 656.00,417.57 C656.00,420.29 653.97,423.06 651.19,424.13 C649.39,424.83 616.95,425.13 553.16,425.04 C481.72,424.94 457.46,425.20 456.41,426.08 C455.63,426.72 455.00,428.46 455.00,429.94 C455.00,439.50 447.52,450.31 437.04,455.90 L 430.92 459.16 L 431.21 501.33 C431.46,538.35 431.70,543.87 433.16,546.52 C435.59,550.96 439.96,555.04 444.50,557.12 ZM 467.50 657.87 C480.15,658.34 491.40,658.57 492.50,658.38 C493.60,658.18 498.66,658.02 503.75,658.01 L 513.00 658.00 L 513.00 655.18 C513.00,650.19 510.06,642.28 506.99,638.99 C505.35,637.23 504.20,635.48 504.44,635.09 C504.68,634.70 506.55,634.58 508.59,634.82 C514.47,635.51 520.36,642.07 523.04,650.92 L 525.19 658.00 L 535.35 657.98 C540.93,657.98 546.12,657.57 546.89,657.09 C548.85,655.85 547.87,647.71 545.05,641.78 C536.60,624.01 521.32,618.20 478.25,616.39 C469.31,616.01 462.00,615.32 462.00,614.85 C462.00,614.38 462.49,614.00 463.09,614.00 C463.69,614.00 468.35,612.00 473.46,609.55 C487.90,602.61 498.89,591.20 503.96,577.86 C505.08,574.91 506.00,572.39 506.00,572.25 C506.00,572.11 502.72,572.00 498.71,572.00 L 491.42 572.00 L 486.96 576.60 C481.61,582.11 469.44,591.72 458.60,598.97 C449.45,605.10 427.93,616.21 420.56,618.62 C413.07,621.06 412.45,621.81 415.35,624.90 C417.56,627.26 417.82,628.53 418.22,638.78 C418.83,654.78 419.26,655.26 433.60,656.25 C439.60,656.67 454.85,657.39 467.50,657.87 ZM 451.02 353.75 L 451.00 380.00 L 444.00 380.00 L 443.75 357.75 C443.37,323.17 443.38,322.93 446.47,320.27 L 449.10 318.01 L 552.55 318.02 C627.81,318.03 656.67,318.35 658.49,319.18 C659.96,319.85 661.34,321.60 661.84,323.41 C662.31,325.11 662.47,337.22 662.21,350.33 C661.74,373.46 661.67,374.19 659.61,374.97 C658.45,375.41 657.28,375.56 657.00,375.30 C656.72,375.05 656.28,363.74 656.00,350.17 L 655.50 325.50 L 554.06 325.25 C473.57,325.04 452.46,325.25 451.83,326.25 C451.39,326.94 451.02,339.31 451.02,353.75 ZM 411.72 149.38 C406.09,152.62 402.46,153.15 396.67,151.58 C390.56,149.92 387.09,147.35 384.30,142.43 C379.27,133.55 380.82,124.19 388.47,117.14 C393.30,112.68 397.34,111.49 405.10,112.24 C414.72,113.16 422.50,122.67 421.75,132.61 C421.23,139.45 417.17,146.24 411.72,149.38 ZM 679.89 430.00 C684.65,432.52 687.01,432.46 691.10,429.73 C696.68,426.00 698.00,422.12 697.98,409.50 C697.96,400.86 697.55,397.60 696.06,394.32 C691.29,383.82 676.15,385.15 674.35,396.23 C673.58,400.99 676.64,404.15 684.38,406.59 C687.49,407.58 689.89,408.82 689.72,409.35 C689.54,409.89 687.07,411.09 684.23,412.01 C678.06,414.03 676.60,415.13 674.99,419.03 C673.27,423.18 675.22,427.53 679.89,430.00 ZM 546.00 143.02 C543.75,144.44 541.83,144.18 538.37,141.96 C530.16,136.70 524.11,121.03 528.57,116.57 C530.52,114.62 531.35,114.61 535.00,116.50 C543.00,120.64 550.98,139.87 546.00,143.02 ZM 274.50 326.97 C277.44,327.59 277.52,327.50 278.35,322.65 C278.82,319.93 278.89,314.79 278.51,311.24 L 277.82 304.79 L 274.66 305.42 C269.40,306.47 264.55,311.10 264.19,315.43 C263.68,321.39 267.33,325.48 274.50,326.97 ZM 266.56 271.01 C272.95,272.24 274.00,272.13 273.97,270.25 C273.92,267.34 270.37,250.03 269.68,249.35 C268.49,248.16 260.94,254.05 259.33,257.43 C256.48,263.40 259.85,269.72 266.56,271.01 ZM 261.88 380.50 C264.42,381.82 267.00,382.93 267.62,382.95 C268.60,382.99 270.49,377.41 272.42,368.75 L 273.04 366.00 L 266.08 366.00 C257.22,366.00 252.09,367.89 252.02,371.17 C251.98,372.90 257.72,378.33 261.88,380.50 ZM 246.13 424.42 C248.35,426.94 250.35,429.00 250.57,429.00 C251.29,429.00 258.00,415.10 258.00,413.62 C258.00,410.37 243.48,408.52 241.03,411.46 C239.22,413.64 241.31,418.93 246.13,424.42 ZM 409.00 130.23 C412.08,131.25 416.00,127.58 416.00,123.67 C416.00,117.89 410.95,115.25 406.22,118.56 C402.10,121.44 403.78,128.51 409.00,130.23 ZM 531.93 528.31 C531.81,538.53 530.15,539.77 530.07,529.69 C530.03,524.06 530.36,521.10 531.00,521.50 C531.55,521.84 531.97,524.90 531.93,528.31 ZM 574.53 488.59 C574.81,490.74 574.62,493.85 574.10,495.50 C573.33,497.98 573.16,497.22 573.09,491.08 C573.00,483.24 573.67,482.07 574.53,488.59 ZM 531.18 449.30 C531.86,451.16 531.87,453.66 531.22,456.80 C530.24,461.48 530.24,461.47 530.20,454.00 C530.16,447.77 530.33,446.97 531.18,449.30 Z" fill="rgb(18,47,62)"/>
<path d="M 444.50 557.12 C439.96,555.04 435.59,550.96 433.16,546.52 C431.70,543.87 431.46,538.35 431.21,501.33 L 430.92 459.16 L 437.04 455.90 C447.52,450.31 455.00,439.50 455.00,429.94 C455.00,428.46 455.63,426.72 456.41,426.08 C457.46,425.20 481.72,424.94 553.16,425.04 C616.95,425.13 649.39,424.83 651.19,424.13 C653.97,423.06 656.00,420.29 656.00,417.57 C656.00,416.16 646.09,416.00 556.02,416.00 L 466.80 416.00 L 556.52 415.76 L 657.00 415.50 L 657.00 418.31 C657.00,419.93 657.42,420.86 658.00,420.50 C659.37,419.66 659.27,421.33 657.87,422.73 C657.24,423.36 657.01,424.57 657.34,425.43 C658.21,427.72 659.89,427.35 660.43,424.75 C660.77,423.10 661.36,418.10 661.75,413.93 C661.66,415.16 661.54,416.59 661.41,418.26 C660.83,425.38 661.01,426.50 663.51,431.61 C665.25,435.17 667.63,438.15 670.08,439.84 L 673.92 442.50 L 673.94 492.50 C673.96,539.22 673.83,542.77 672.09,546.62 C671.06,548.88 668.68,551.90 666.80,553.34 C665.74,554.14 664.95,554.84 664.08,555.43 C658.87,559.02 651.19,559.01 568.86,558.98 C563.64,558.98 558.12,558.98 552.28,558.98 C453.76,558.96 448.30,558.86 444.50,557.12 ZM 313.00 660.36 C307.77,660.22 293.41,659.54 281.09,658.86 C264.65,657.95 258.19,657.91 255.38,654.68 C253.29,652.29 253.22,648.14 252.58,640.59 L 251.57 628.73 C252.69,630.22 253.00,631.38 253.00,632.98 C253.00,634.82 253.29,636.05 253.63,635.70 C253.98,635.35 255.43,635.98 256.86,637.10 C258.61,638.48 259.58,638.76 259.85,637.96 C260.47,636.09 257.88,629.20 255.87,627.38 C254.87,626.47 254.29,625.34 254.58,624.87 C254.88,624.39 254.62,624.00 254.00,624.00 C248.51,624.00 220.16,580.06 217.45,567.34 C217.32,566.71 216.70,565.36 216.08,564.34 C214.79,562.22 215.16,565.25 216.52,570.27 C215.77,568.02 215.15,566.30 214.88,565.76 C214.39,564.81 214.00,563.12 214.00,562.01 C214.00,560.91 213.61,560.00 213.14,560.00 C211.88,560.00 212.87,578.22 214.64,587.50 C215.62,592.64 216.75,597.02 218.18,601.09 C216.46,596.91 215.00,593.04 215.00,592.42 C215.00,592.37 209.96,592.25 203.80,592.15 C172.22,591.65 143.63,580.91 120.88,561.00 C117.50,558.04 115.74,556.56 115.80,557.15 C111.26,549.67 108.26,542.32 106.00,533.50 C104.13,526.20 103.27,515.00 104.58,515.00 C104.90,515.00 108.38,516.55 112.33,518.44 C122.09,523.12 131.72,526.20 140.92,527.61 C133.46,526.62 126.17,524.37 115.50,520.06 C110.00,517.84 106.40,516.70 107.50,517.51 C108.60,518.33 110.50,519.93 111.73,521.08 C117.99,526.95 135.76,534.95 145.50,536.29 C165.68,539.06 188.29,530.73 204.23,514.63 C207.99,510.83 210.87,507.54 210.63,507.30 C210.40,507.07 207.80,508.70 204.85,510.94 C197.93,516.21 189.55,520.48 180.61,523.46 C199.66,516.97 215.32,504.47 230.49,484.17 C234.25,479.12 237.73,475.00 238.22,475.00 C238.72,475.00 238.90,474.65 238.64,474.23 C238.19,473.51 243.26,465.62 257.34,445.16 C265.68,433.02 271.36,421.03 277.44,402.70 C283.58,384.22 288.17,364.91 290.58,347.50 C292.25,335.43 293.32,288.00 291.92,288.00 C291.27,288.00 289.47,273.37 289.64,269.50 C289.69,268.40 289.44,267.27 289.08,267.00 C288.41,266.49 281.88,234.27 279.86,221.50 C279.25,217.65 278.76,207.52 278.76,199.00 C278.76,190.47 279.21,183.01 280.25,175.97 C279.92,178.60 280.02,180.11 280.72,179.67 C281.24,179.35 281.74,177.24 281.83,174.98 C281.98,171.13 283.97,167.54 285.39,168.54 C285.73,168.78 285.56,168.45 285.01,167.79 C283.71,166.26 283.70,164.70 284.99,165.49 C285.53,165.83 285.74,165.49 285.45,164.74 C284.76,162.94 293.56,143.14 298.44,135.50 C304.15,126.56 313.82,115.41 319.75,110.91 C322.64,108.72 325.00,107.19 325.00,107.51 C325.00,107.82 324.10,109.84 323.01,111.98 C315.97,125.78 308.40,151.07 305.80,169.50 C303.22,187.72 304.65,230.74 308.48,250.50 C317.07,294.75 317.16,316.90 308.95,360.50 C306.45,373.72 303.11,385.52 297.98,399.25 C286.61,429.67 280.79,440.56 263.84,463.11 C256.34,473.09 254.64,476.24 251.68,485.64 C247.90,497.64 246.45,513.75 247.96,526.82 C249.36,538.97 256.01,560.39 260.45,567.11 C263.53,571.76 269.21,574.74 281.00,577.88 C292.00,580.81 305.19,580.67 317.42,577.49 C330.49,574.10 349.16,564.47 351.52,559.91 C352.17,558.66 352.74,556.99 353.24,554.98 C351.65,562.45 349.04,569.43 344.97,577.76 C336.74,594.60 323.02,606.97 305.00,613.79 C301.98,614.94 298.60,616.22 297.50,616.63 C296.33,617.08 301.31,617.68 309.50,618.08 C335.25,619.35 351.35,622.15 361.65,627.57 C352.53,622.82 339.12,620.06 321.50,619.34 C313.25,619.01 306.76,619.01 307.08,619.36 C307.40,619.71 308.86,620.09 310.33,620.22 C311.80,620.34 313.00,620.77 313.00,621.17 C313.00,621.58 314.58,622.21 316.51,622.57 C318.44,622.93 320.29,623.66 320.62,624.20 C322.13,626.64 318.55,627.46 306.22,627.48 C292.50,627.50 289.62,628.31 283.75,633.80 C276.95,640.17 281.68,643.53 302.50,647.10 C309.65,648.33 315.78,649.59 316.12,649.91 C316.46,650.24 317.03,651.74 317.39,653.24 C317.88,655.31 317.53,656.42 315.97,657.74 C313.94,659.47 313.97,659.51 318.20,660.12 C319.51,660.30 322.21,660.46 325.39,660.54 C320.85,660.51 316.18,660.44 313.00,660.36 ZM 467.50 657.87 C454.85,657.39 439.60,656.67 433.60,656.25 C419.26,655.26 418.83,654.78 418.22,638.78 C417.82,628.53 417.56,627.26 415.35,624.90 C415.12,624.66 414.91,624.43 414.73,624.21 C414.96,624.47 415.23,624.74 415.53,625.03 C416.89,626.30 418.01,628.28 418.02,629.42 C418.03,631.13 418.20,631.23 419.00,630.00 C419.65,629.00 419.97,628.92 419.98,629.75 C419.99,630.44 420.67,631.00 421.50,631.00 C422.33,631.00 423.00,630.51 423.00,629.91 C423.00,627.84 417.50,621.04 415.81,621.02 C415.18,621.01 414.69,621.09 414.34,621.23 C415.24,620.46 417.21,619.71 420.56,618.62 C427.93,616.21 449.45,605.10 458.60,598.97 C469.44,591.72 481.61,582.11 486.96,576.60 L 491.42 572.00 L 498.71 572.00 C502.72,572.00 506.00,572.11 506.00,572.25 C506.00,572.39 505.08,574.91 503.96,577.86 C498.89,591.20 487.90,602.61 473.46,609.55 C468.35,612.00 463.69,614.00 463.09,614.00 C462.49,614.00 462.00,614.38 462.00,614.85 C462.00,615.32 469.31,616.01 478.25,616.39 C481.16,616.51 483.94,616.65 486.60,616.81 C474.44,616.15 461.67,615.91 462.32,616.60 C463.60,617.97 473.58,619.91 484.50,620.92 C490.00,621.43 495.81,622.35 497.41,622.96 C499.01,623.57 501.80,624.13 503.62,624.20 C505.43,624.26 507.13,624.91 507.41,625.63 C507.96,627.07 506.47,628.41 505.19,627.62 C503.15,626.36 468.37,624.57 462.62,625.43 C457.31,626.23 448.00,632.89 448.00,635.90 C448.00,639.89 452.70,641.41 471.94,643.62 C482.36,644.82 486.00,645.20 487.28,647.13 C487.97,648.17 487.98,649.67 487.98,651.98 L 487.99 652.32 C487.99,653.86 488.49,656.04 489.09,657.16 C489.41,657.76 489.76,658.19 490.17,658.44 C486.06,658.45 477.19,658.23 467.50,657.87 ZM 566.89 406.63 C565.62,408.16 547.50,408.61 545.24,407.17 C544.25,406.54 544.03,398.42 544.24,369.93 L 544.50 333.50 L 567.50 333.50 L 567.76 369.38 C567.95,395.03 567.70,405.65 566.89,406.63 ZM 324.75 452.38 C321.04,450.51 316.66,448.88 312.50,447.75 C312.84,447.83 313.17,447.92 313.51,448.00 C317.81,449.10 321.55,449.79 321.81,449.52 C322.07,449.26 320.86,445.84 319.11,441.93 C314.91,432.54 313.37,421.75 314.82,411.90 C316.36,401.41 317.14,397.65 318.00,396.50 C318.41,395.95 319.34,393.14 320.06,390.25 C320.32,389.20 320.60,388.29 320.87,387.54 C320.70,388.16 320.54,388.87 320.42,389.66 C319.49,395.92 320.51,409.32 322.53,417.14 C325.90,430.19 334.62,442.88 344.75,449.49 C347.09,451.02 349.00,452.73 349.00,453.30 C349.00,453.87 349.26,454.08 349.57,453.76 C350.05,453.28 356.93,455.67 364.50,458.95 C365.43,459.35 366.68,459.74 368.21,460.11 C367.09,460.10 366.27,460.28 365.59,460.69 C364.28,461.47 363.47,463.09 362.08,465.85 C360.45,469.07 357.91,473.14 356.44,474.89 C354.03,477.75 353.91,478.25 355.25,479.79 C358.06,483.01 363.92,497.57 366.02,506.53 C366.62,509.08 367.23,512.85 367.73,516.81 C363.66,486.88 348.80,464.49 324.75,452.38 ZM 597.42 407.39 C596.55,407.73 591.61,408.00 586.45,408.00 C578.40,408.00 576.93,407.74 576.10,406.18 C575.54,405.14 575.20,395.85 575.31,384.43 L 575.50 364.50 L 599.00 363.94 L 599.00 385.36 C599.00,403.98 598.79,406.87 597.42,407.39 ZM 535.77 385.25 L 536.04 408.00 L 524.99 408.00 C516.96,408.00 513.80,407.65 513.45,406.73 C513.18,406.02 513.08,395.79 513.23,383.98 C513.45,366.24 513.75,362.50 514.92,362.50 C515.70,362.50 516.54,363.13 516.80,363.89 C517.06,364.69 516.81,365.00 516.20,364.62 C515.62,364.26 514.81,364.49 514.41,365.14 C513.96,365.87 514.12,366.04 514.85,365.59 C515.51,365.18 516.29,365.59 516.65,366.52 C517.15,367.84 517.45,367.90 518.12,366.83 C518.70,365.93 518.97,365.88 518.98,366.69 C518.99,367.34 519.79,367.84 520.75,367.80 C521.71,367.77 523.36,368.09 524.41,368.54 C525.77,369.10 526.12,369.00 525.61,368.17 C525.14,367.42 525.62,367.00 526.92,367.00 C528.28,367.00 529.18,366.14 529.60,364.45 C530.12,362.40 530.77,361.95 532.87,362.20 L 535.50 362.50 ZM 505.59 504.01 C509.87,505.36 527.16,504.16 529.00,502.38 C531.04,500.41 531.14,483.08 529.13,480.65 C527.99,479.28 525.69,479.00 515.58,479.00 C507.44,479.00 503.00,479.40 502.20,480.20 C500.82,481.58 500.53,499.71 501.85,501.79 C502.30,502.50 503.98,503.50 505.59,504.01 ZM 459.86 503.43 C463.75,505.47 482.11,505.22 483.72,503.10 C484.49,502.08 484.95,497.64 484.97,490.86 C484.99,482.05 484.73,480.11 483.42,479.61 C481.17,478.75 459.72,478.88 458.40,479.77 C456.73,480.89 455.97,487.74 456.67,495.30 C457.22,501.26 457.61,502.26 459.86,503.43 ZM 503.22 539.44 C506.04,541.41 526.89,541.71 528.80,539.80 C529.57,539.03 530.00,535.02 530.00,528.50 C530.00,521.98 529.57,517.97 528.80,517.20 C528.00,516.40 523.58,516.00 515.50,516.00 C507.42,516.00 503.00,516.40 502.20,517.20 C501.43,517.97 501.00,521.90 501.00,528.14 C501.00,537.08 501.18,538.02 503.22,539.44 ZM 502.57 465.43 C503.82,466.68 506.56,467.00 516.04,467.00 C526.77,467.00 528.03,466.81 528.96,465.07 C530.44,462.32 530.30,444.70 528.80,443.20 C528.00,442.40 523.66,442.00 515.87,442.00 L 515.63 442.00 C507.89,442.00 504.25,442.00 502.53,443.82 C501.00,445.44 501.00,448.50 501.00,454.30 L 501.00 454.50 C501.00,461.67 501.37,464.22 502.57,465.43 ZM 320.80 210.00 C320.80,210.00 320.81,210.00 320.82,210.00 C321.26,210.00 322.66,212.47 323.91,215.49 C325.75,219.93 327.65,222.20 333.84,227.32 C347.12,238.31 352.21,241.52 363.00,245.72 C380.10,252.37 380.04,252.35 405.46,254.49 C419.24,255.65 423.62,256.35 424.26,257.50 C424.78,258.44 427.74,258.89 432.14,258.93 C424.16,259.28 415.10,259.44 404.50,259.46 C378.17,259.50 376.03,259.36 368.55,257.20 C357.86,254.10 347.86,248.69 340.88,242.23 C333.68,235.56 330.18,230.31 325.37,218.95 C323.30,214.06 321.25,210.05 320.80,210.00 ZM 546.25 503.84 C549.42,505.44 568.24,504.87 570.37,503.11 C572.74,501.14 572.78,480.51 570.42,479.61 C567.76,478.59 547.99,478.93 545.93,480.04 C544.21,480.96 544.00,482.22 544.00,491.88 C544.00,502.09 544.13,502.76 546.25,503.84 ZM 546.25 539.97 C549.72,541.36 569.37,541.23 570.80,539.80 C571.58,539.02 572.00,534.89 572.00,527.91 C572.00,519.08 571.72,517.11 570.42,516.61 C569.55,516.27 563.96,516.00 558.00,516.00 C552.04,516.00 546.45,516.27 545.58,516.61 C544.27,517.11 544.00,519.10 544.00,528.14 C544.00,538.53 544.11,539.11 546.25,539.97 ZM 545.75 465.92 C548.29,467.40 569.30,467.30 570.80,465.80 C571.58,465.02 572.00,460.89 572.00,453.91 C572.00,445.08 571.72,443.11 570.42,442.61 C567.40,441.45 546.46,441.94 545.20,443.20 C544.42,443.98 544.00,448.01 544.00,454.65 C544.00,463.36 544.26,465.05 545.75,465.92 ZM 628.20 502.80 C629.00,503.60 633.31,504.00 641.00,504.00 C648.69,504.00 653.00,503.60 653.80,502.80 C654.57,502.03 655.00,498.02 655.00,491.50 C655.00,484.98 654.57,480.97 653.80,480.20 C652.15,478.55 629.85,478.55 628.20,480.20 C627.43,480.97 627.00,484.98 627.00,491.50 C627.00,498.02 627.43,502.03 628.20,502.80 ZM 459.11 539.75 C460.71,540.59 465.28,540.92 473.00,540.75 L 484.50 540.50 L 484.50 516.50 L 471.58 516.22 C464.48,516.06 458.31,516.29 457.89,516.72 C457.46,517.15 457.03,522.22 456.91,528.00 C456.72,538.15 456.79,538.54 459.11,539.75 ZM 630.00 539.71 C631.49,540.46 636.38,540.98 642.10,540.99 C654.95,541.01 655.17,540.76 654.79,526.88 L 654.50 516.50 L 642.14 516.22 C633.72,516.03 629.33,516.31 628.36,517.12 C627.26,518.03 627.00,520.61 627.22,528.37 C627.49,537.98 627.61,538.50 630.00,539.71 ZM 457.85 465.71 C458.87,466.73 462.28,466.99 471.85,466.78 L 484.50 466.50 L 484.78 454.72 L 485.06 442.94 L 471.28 443.22 L 457.50 443.50 L 457.00 453.93 C456.62,461.89 456.82,464.68 457.85,465.71 ZM 504.50 382.50 L 504.50 407.50 L 493.90 407.78 C485.68,408.00 483.03,407.74 482.12,406.64 C481.32,405.68 481.02,401.51 481.22,393.86 L 481.50 382.50 ZM 628.42 407.39 C625.47,408.52 609.45,408.05 608.20,406.80 C607.44,406.04 607.00,402.21 607.00,396.36 L 607.00 387.13 L 617.75 386.81 C623.66,386.63 628.84,386.63 629.25,386.80 C629.66,386.98 630.00,391.54 630.00,396.95 C630.00,405.00 629.71,406.90 628.42,407.39 ZM 332.10 414.18 C334.56,419.03 338.00,423.37 338.00,421.61 C338.00,421.25 340.81,423.17 344.25,425.86 C358.81,437.26 377.36,443.66 398.91,444.71 C409.35,445.22 411.63,445.63 413.26,447.26 C414.38,448.38 416.19,448.85 418.51,448.68 C407.36,450.19 385.03,449.87 376.23,447.73 C352.92,442.07 341.82,433.99 333.12,416.36 C332.79,415.69 332.45,414.96 332.10,414.18 ZM 363.24 170.58 C364.11,170.22 364.96,170.00 365.58,170.00 C366.84,170.00 368.14,169.58 368.45,169.07 C369.24,167.81 374.29,169.36 378.00,172.00 C383.21,175.71 392.17,178.74 401.78,180.04 C406.89,180.73 411.30,181.68 411.59,182.15 C411.88,182.62 415.05,183.00 418.64,183.00 L 425.16 183.00 L 424.51 185.97 C425.14,183.08 425.06,183.00 421.33,183.03 C419.22,183.04 413.15,183.47 407.84,183.99 C396.29,185.11 383.90,183.94 377.50,181.10 C374.18,179.63 372.57,178.14 371.26,175.31 C370.29,173.22 369.05,171.17 368.50,170.77 C367.23,169.83 365.23,169.81 363.24,170.58 ZM 266.56 271.01 C259.85,269.72 256.48,263.40 259.33,257.43 C260.94,254.05 268.49,248.16 269.68,249.35 C270.37,250.03 273.92,267.34 273.97,270.25 C274.00,272.13 272.95,272.24 266.56,271.01 ZM 591.06 501.12 C591.91,502.70 592.97,503.05 596.21,502.80 C598.60,502.63 600.60,501.88 601.03,501.00 C603.65,495.66 604.12,493.98 603.83,490.92 C603.51,487.56 603.41,487.49 598.37,487.20 C591.84,486.82 590.00,488.46 590.00,494.64 C590.00,497.11 590.48,500.03 591.06,501.12 ZM 591.91 462.40 C593.71,464.56 593.95,464.48 597.03,460.80 L 599.70 457.60 L 603.74 460.80 C608.38,464.47 608.58,464.53 609.37,462.48 C609.72,461.56 608.79,459.94 606.97,458.32 C605.34,456.86 604.00,455.26 604.00,454.77 C604.00,454.28 605.33,452.75 606.95,451.39 C608.69,449.93 609.67,448.31 609.34,447.45 C608.52,445.31 606.65,445.68 604.00,448.50 C602.71,449.88 601.13,451.00 600.50,451.00 C599.87,451.00 598.29,449.88 597.00,448.50 C594.45,445.79 592.53,445.33 591.40,447.16 C590.98,447.84 592.00,449.51 593.84,451.15 C595.58,452.70 597.00,454.32 597.01,454.74 C597.01,455.16 595.57,456.69 593.80,458.15 C591.02,460.43 590.76,461.01 591.91,462.40 ZM 631.00 463.19 C631.00,466.49 633.83,465.07 638.69,459.31 C641.34,456.19 645.19,451.75 647.25,449.45 C651.41,444.83 652.01,442.70 649.04,443.18 C646.52,443.59 631.00,460.80 631.00,463.19 ZM 599.01 536.00 C608.59,536.46 612.00,536.32 612.00,535.47 C612.00,535.30 611.73,534.45 611.39,533.58 C610.89,532.27 608.85,532.00 599.32,532.00 C588.94,532.00 587.88,532.17 588.19,533.75 C588.47,535.24 590.05,535.57 599.01,536.00 ZM 451.02 353.75 C451.02,339.31 451.39,326.94 451.83,326.25 C451.39,326.94 451.02,340.20 451.02,355.72 L 451.00 383.95 L 448.05 385.47 C446.43,386.31 444.86,387.00 444.57,387.00 C443.17,387.00 442.89,380.03 443.18,352.57 L 443.50 322.82 L 446.30 320.42 L 449.10 318.01 L 446.47 320.27 C443.38,322.93 443.37,323.17 443.75,357.75 L 444.00 380.00 L 451.00 380.00 ZM 606.64 496.31 C608.00,497.67 608.79,495.78 609.45,489.59 C609.95,484.98 610.61,482.98 611.79,482.53 C613.22,481.98 613.24,481.76 611.97,480.96 C611.16,480.45 609.49,480.02 608.25,480.02 C606.11,480.00 606.00,480.37 606.00,487.83 C606.00,492.14 606.29,495.95 606.64,496.31 ZM 589.77 529.86 C590.33,530.21 595.34,530.36 600.90,530.18 C608.71,529.94 611.00,529.55 611.00,528.48 C611.00,527.37 608.81,527.08 600.53,527.08 C590.83,527.08 586.93,528.09 589.77,529.86 ZM 600.14 499.00 C599.60,499.00 598.56,499.22 597.83,499.49 C594.86,500.58 592.33,496.12 594.07,492.87 C594.81,491.49 595.95,490.97 597.82,491.19 C600.13,491.46 600.54,492.02 600.81,495.25 C600.98,497.31 600.68,499.00 600.14,499.00 ZM 655.77 353.64 L 655.50 325.50 L 656.00 350.17 C656.28,363.74 656.72,375.05 657.00,375.30 C657.28,375.56 658.45,375.41 659.61,374.97 C661.10,374.40 661.55,373.86 661.87,364.73 C661.60,374.35 661.22,381.86 660.79,382.13 C660.23,382.47 658.94,382.53 657.90,382.26 C656.14,381.80 656.02,380.18 655.77,353.64 ZM 134.15 543.11 C136.19,544.40 139.62,544.17 140.87,542.65 C142.41,540.80 138.96,537.73 135.84,538.17 C133.21,538.54 132.09,541.81 134.15,543.11 ZM 592.75 525.22 C596.09,525.65 599.27,524.30 598.73,522.68 C598.23,521.18 595.54,520.65 592.42,521.43 C589.13,522.26 589.35,524.78 592.75,525.22 ZM 531.93 528.31 C531.97,524.90 531.55,521.84 531.00,521.50 C530.36,521.10 530.03,524.06 530.07,529.69 C530.15,539.77 531.81,538.53 531.93,528.31 ZM 603.19 523.25 C602.93,524.60 603.54,525.00 605.87,525.00 C609.22,525.00 610.27,524.05 609.07,522.11 C607.95,520.30 603.59,521.14 603.19,523.25 ZM 645.10 463.10 C647.27,464.50 649.50,463.68 649.50,461.49 C649.50,460.19 648.72,459.39 647.25,459.18 C644.58,458.80 642.98,461.73 645.10,463.10 ZM 574.53 488.59 C573.67,482.07 573.00,483.24 573.09,491.08 C573.16,497.22 573.33,497.98 574.10,495.50 C574.62,493.85 574.81,490.74 574.53,488.59 ZM 531.18 449.30 C530.33,446.97 530.16,447.77 530.20,454.00 C530.24,461.47 530.24,461.48 531.22,456.80 C531.87,453.66 531.86,451.16 531.18,449.30 ZM 274.50 326.97 C270.05,326.04 266.96,324.12 265.37,321.36 C265.76,321.87 266.25,322.40 266.86,323.02 C269.90,326.05 273.20,327.02 272.75,324.75 C272.60,324.00 273.30,323.64 274.50,323.85 C277.11,324.30 277.85,325.15 276.14,325.76 C274.99,326.17 274.99,326.37 276.14,327.09 C276.84,327.53 277.46,326.66 277.92,324.98 C277.38,327.51 276.86,327.47 274.50,326.97 ZM 161.98 599.92 C174.12,606.14 188.15,610.95 204.23,614.47 C201.84,613.98 199.48,613.45 197.26,612.92 C184.37,609.84 172.58,605.49 161.98,599.92 ZM 521.70 622.07 C533.79,625.94 540.44,632.08 545.05,641.78 C540.54,632.30 533.24,626.00 521.70,622.07 ZM 372.61 618.43 C373.20,618.64 373.77,618.79 374.35,618.89 C377.27,619.40 380.43,618.57 388.29,616.51 L 389.00 616.32 C390.02,616.05 391.05,615.77 392.09,615.47 C390.28,616.00 388.47,616.49 386.69,616.95 L 375.46 619.85 ZM 354.69 515.93 C354.34,512.62 353.86,509.49 353.25,506.68 C350.13,492.22 342.89,478.45 333.14,468.03 C338.55,473.65 342.91,480.08 346.63,487.68 C351.18,496.96 353.64,505.23 354.69,515.93 ZM 304.64 118.34 C314.75,104.95 327.49,94.66 343.80,86.54 C327.87,94.47 314.91,104.97 304.64,118.34 ZM 472.35 253.89 C467.17,255.15 461.84,256.16 455.94,256.96 C461.43,256.15 466.98,255.13 472.00,253.93 C480.69,251.85 493.50,248.47 505.43,245.17 C493.75,248.41 481.19,251.74 472.35,253.89 ZM 379.40 462.00 C384.29,462.59 389.77,463.02 395.16,463.21 C388.54,463.07 383.47,462.68 379.40,462.00 ZM 267.41 309.37 C269.34,307.46 271.95,305.96 274.66,305.42 C272.93,305.76 269.93,307.32 268.00,308.88 C267.79,309.05 267.59,309.21 267.41,309.37 ZM 426.98 602.31 C443.73,594.54 459.49,585.17 470.25,576.16 C459.36,585.27 443.77,594.56 426.98,602.31 ZM 118.42 561.23 C119.62,562.89 121.24,565.07 123.30,567.83 C123.98,568.74 124.66,569.63 125.37,570.51 C124.39,569.32 123.43,568.12 122.50,566.89 C121.03,564.96 119.67,563.08 118.42,561.23 ZM 280.89 172.10 C281.82,167.08 283.06,162.23 284.69,157.30 C283.09,162.44 281.72,167.87 280.89,172.10 ZM 373.20 637.71 C376.81,642.93 379.09,649.12 379.30,654.45 L 379.50 659.50 L 379.29 654.38 C379.09,649.30 376.69,642.88 373.20,637.71 ZM 661.88 323.59 C661.87,323.52 661.85,323.46 661.84,323.41 C661.36,321.65 660.05,319.96 658.63,319.25 C659.95,319.91 661.31,321.29 661.69,322.40 C661.76,322.60 661.83,323.01 661.88,323.59 ZM 421.79 448.10 C424.15,447.48 426.85,446.40 429.77,444.86 C430.76,444.34 431.65,443.86 432.46,443.40 C429.64,445.18 426.37,446.72 423.00,447.78 C422.64,447.89 422.23,448.00 421.79,448.10 ZM 301.00 447.21 C307.07,449.83 312.44,452.56 317.24,455.48 C312.30,452.57 306.42,449.55 301.00,447.21 ZM 409.46 463.27 L 417.88 463.19 L 417.88 463.26 ZM 236.45 612.13 C238.91,615.41 241.51,618.48 244.27,621.33 C241.61,618.67 238.98,615.56 236.45,612.13 ZM 325.86 397.87 C324.19,392.84 323.00,388.53 323.00,386.99 C323.00,388.41 324.23,392.86 325.86,397.87 ZM 441.21 433.84 C441.88,431.98 441.69,431.19 440.63,429.55 C441.75,431.27 441.98,431.96 441.21,433.84 ZM 264.14 316.71 C264.13,316.29 264.15,315.87 264.19,315.43 C264.21,315.08 264.27,314.74 264.36,314.39 C264.28,314.84 264.23,315.33 264.19,315.87 C264.17,316.17 264.15,316.45 264.14,316.71 ZM 662.02 406.04 C661.90,404.46 661.70,402.43 661.48,400.50 C661.76,402.91 661.94,404.50 662.02,406.04 ZM 436.02 426.50 C432.79,425.10 428.60,424.00 425.66,424.00 C428.63,424.00 432.80,425.10 436.02,426.50 ZM 299.82 446.15 C300.26,446.11 301.01,446.09 302.09,446.07 C302.33,446.06 302.61,446.07 302.93,446.09 C302.61,446.08 302.30,446.08 302.00,446.08 C300.97,446.10 300.26,446.11 299.82,446.15 ZM 322.68 385.11 C322.88,385.36 323.00,385.97 323.00,386.99 C323.00,386.00 322.88,385.39 322.68,385.11 ZM 456.04 416.00 L 455.45 413.25 C455.36,412.82 455.27,412.39 455.17,411.96 C455.27,412.39 455.36,412.82 455.46,413.26 L 456.04 416.00 Z" fill="rgb(82,151,167)"/>
<path d="M 320.80 210.00 C320.80,210.00 320.79,210.00 320.79,210.00 C319.31,210.00 319.99,220.65 321.96,228.35 C325.38,241.72 333.09,252.60 344.49,260.46 C341.23,258.46 338.44,257.23 337.86,257.59 C337.19,258.00 336.96,257.88 337.32,257.29 C337.67,256.73 337.06,255.46 335.98,254.48 C334.04,252.73 334.00,252.77 334.00,256.49 C334.00,264.45 341.50,286.40 352.30,310.04 C361.57,330.34 366.64,343.34 370.00,355.43 C371.64,361.33 372.42,363.24 376.10,367.35 C375.74,367.02 375.41,366.72 375.12,366.46 C369.78,361.79 360.90,356.00 359.07,356.00 C358.39,356.00 359.81,358.81 362.23,362.25 C364.65,365.69 369.47,373.45 372.95,379.50 C380.14,392.01 382.90,395.36 388.34,398.16 C391.88,399.98 393.43,400.08 408.34,399.45 C424.36,398.77 429.75,399.24 434.45,402.51 C433.54,402.14 432.57,402.14 431.16,402.37 C426.45,403.12 425.00,404.68 425.00,408.99 C425.00,413.31 427.93,417.65 431.27,418.29 C432.41,418.51 433.87,418.55 434.66,418.40 C433.05,418.80 431.16,419.16 429.00,419.45 C426.52,419.78 423.88,420.44 423.12,420.92 C421.15,422.15 422.67,424.00 425.66,424.00 C428.09,424.00 431.38,424.76 434.28,425.81 C431.31,425.06 430.40,425.29 427.97,427.02 C425.48,428.80 425.00,429.82 425.00,433.38 C425.00,437.82 426.17,440.02 429.50,441.85 C430.60,442.45 432.00,442.95 432.62,442.97 C432.82,442.98 433.04,442.94 433.28,442.87 C433.01,443.05 432.74,443.23 432.46,443.40 C431.65,443.86 430.76,444.34 429.77,444.86 C426.85,446.40 424.15,447.48 421.79,448.10 C420.86,448.32 419.75,448.51 418.51,448.68 C416.19,448.85 414.38,448.38 413.26,447.26 C411.63,445.63 409.35,445.22 398.91,444.71 C377.36,443.66 358.81,437.26 344.25,425.86 C340.81,423.17 338.00,421.25 338.00,421.61 C338.00,423.37 334.56,419.03 332.10,414.18 C330.05,409.62 327.67,403.32 325.86,397.87 C324.23,392.86 323.00,388.41 323.00,386.99 C323.00,385.97 322.88,385.36 322.68,385.11 C322.25,384.47 321.45,385.48 320.87,387.54 C320.60,388.29 320.32,389.20 320.06,390.25 C319.34,393.14 318.41,395.95 318.00,396.50 C317.14,397.65 316.36,401.41 314.82,411.90 C313.37,421.75 314.91,432.54 319.11,441.93 C320.86,445.84 322.07,449.26 321.81,449.52 C321.55,449.79 317.81,449.10 313.51,448.00 C313.17,447.92 312.84,447.83 312.50,447.75 C308.95,446.79 305.57,446.18 302.93,446.09 L 302.93 446.09 C302.61,446.07 302.33,446.06 302.09,446.07 C301.01,446.09 300.26,446.11 299.82,446.15 L 299.82 446.15 C298.81,446.25 299.31,446.48 301.00,447.21 C307.07,449.83 312.44,452.56 317.24,455.48 C323.43,459.25 328.65,463.37 333.14,468.03 C342.89,478.45 350.13,492.22 353.25,506.68 C353.86,509.49 354.34,512.62 354.69,515.93 L 354.69 515.93 C355.16,520.71 355.35,525.96 355.31,532.00 C355.26,541.00 354.68,548.20 353.24,554.98 C352.74,556.99 352.17,558.66 351.52,559.91 C349.16,564.47 330.49,574.10 317.42,577.49 C305.19,580.67 292.00,580.81 281.00,577.88 C269.21,574.74 263.53,571.76 260.45,567.11 C256.01,560.39 249.36,538.97 247.96,526.82 C246.45,513.75 247.90,497.64 251.68,485.64 C254.64,476.24 256.34,473.09 263.84,463.11 C280.79,440.56 286.61,429.67 297.98,399.25 C303.11,385.52 306.45,373.72 308.95,360.50 C317.16,316.90 317.07,294.75 308.48,250.50 C304.65,230.74 303.22,187.72 305.80,169.50 C308.40,151.07 315.97,125.78 323.01,111.98 C324.10,109.84 325.00,107.82 325.00,107.51 C325.00,107.19 322.64,108.72 319.75,110.91 C315.50,114.13 309.35,120.75 304.09,127.54 C309.00,120.94 314.38,115.22 320.78,109.67 C332.86,99.18 348.39,91.68 367.22,87.25 C377.38,84.86 380.44,84.59 398.00,84.57 C415.91,84.55 418.36,84.76 428.00,87.22 C433.77,88.69 440.52,90.65 443.00,91.58 C446.74,92.97 453.53,93.39 483.00,94.01 C524.01,94.89 527.39,95.40 542.50,102.94 C552.83,108.10 558.43,112.64 566.15,122.12 C572.10,129.43 579.76,145.16 583.12,157.00 C583.66,158.93 584.36,161.18 584.68,162.00 C586.11,165.79 586.65,157.57 585.46,150.12 C584.96,147.01 584.35,144.00 583.61,141.09 C586.92,154.14 587.95,169.26 585.50,174.00 C580.58,183.51 553.30,194.10 519.50,199.63 C504.13,202.14 468.44,202.16 455.15,199.66 C443.85,197.54 431.70,193.77 427.18,190.99 C424.27,189.19 423.93,188.57 424.51,185.97 L 424.51 185.97 L 424.51 185.97 L 425.16 183.00 L 418.64 183.00 C415.05,183.00 411.88,182.62 411.59,182.15 C411.30,181.68 406.89,180.73 401.78,180.04 C392.17,178.74 383.21,175.71 378.00,172.00 C374.29,169.36 369.24,167.81 368.45,169.07 C368.14,169.58 366.84,170.00 365.58,170.00 C364.96,170.00 364.11,170.22 363.24,170.58 C362.35,170.92 361.46,171.43 360.63,172.07 C358.59,173.68 358.00,175.02 358.00,178.04 C358.00,183.27 362.33,188.12 370.35,191.87 C379.71,196.24 385.16,197.21 398.50,196.86 L 401.95 196.77 L 401.17 196.81 C395.67,197.07 393.16,197.17 392.57,198.29 C392.08,199.22 392.92,200.85 394.46,203.85 L 394.54 204.00 C403.18,220.83 420.54,229.42 453.00,232.94 C465.88,234.34 518.64,233.45 529.72,231.65 C547.58,228.75 550.24,227.94 554.31,224.10 C557.18,221.38 560.91,215.20 563.03,210.03 C561.33,214.35 558.64,219.30 556.42,221.93 C551.87,227.31 542.66,233.58 535.27,236.33 C531.27,237.81 518.94,241.43 505.43,245.17 L 505.42 245.17 C493.49,248.47 480.69,251.85 472.00,253.93 C466.98,255.13 461.43,256.15 455.94,256.96 L 455.94 256.96 C449.00,257.89 441.29,258.53 432.14,258.93 C427.74,258.89 424.78,258.44 424.26,257.50 C423.62,256.35 419.24,255.65 405.46,254.49 C380.04,252.35 380.10,252.37 363.00,245.72 C352.21,241.52 347.12,238.31 333.84,227.32 C327.65,222.20 325.75,219.93 323.91,215.49 C322.66,212.47 321.26,210.00 320.82,210.00 C320.81,210.00 320.80,210.00 320.80,210.00 ZM 655.77 353.64 C656.02,380.18 656.14,381.80 657.90,382.26 C658.94,382.53 660.23,382.47 660.79,382.13 C661.22,381.86 661.60,374.35 661.87,364.73 C661.98,361.30 662.08,356.65 662.21,350.33 C662.46,337.61 662.32,325.83 661.88,323.59 C661.83,323.01 661.76,322.60 661.69,322.40 C661.31,321.29 659.95,319.91 658.64,319.25 L 658.63 319.25 C658.59,319.22 658.54,319.20 658.49,319.18 C656.67,318.35 627.81,318.03 552.55,318.02 L 449.10 318.01 L 446.30 320.42 L 443.50 322.82 L 443.18 352.57 C442.89,380.03 443.17,387.00 444.57,387.00 C444.86,387.00 446.43,386.31 448.05,385.47 L 450.48 384.22 C450.43,397.11 450.77,399.61 452.05,403.11 C448.73,396.45 443.65,391.87 436.38,388.86 L 430.88 386.58 L 431.19 354.54 C431.53,319.42 431.49,319.66 437.90,313.25 C438.85,312.30 439.51,311.49 440.28,310.80 C444.57,306.98 452.28,306.98 533.67,307.02 C539.74,307.02 546.23,307.02 553.15,307.02 C653.88,307.04 658.68,307.13 662.62,308.91 C664.88,309.94 667.96,312.39 669.45,314.35 C674.33,320.74 675.00,325.16 675.00,350.73 L 675.00 374.13 L 669.08 379.82 C662.06,386.55 660.38,391.12 661.48,400.50 C661.70,402.43 661.90,404.46 662.02,406.04 C662.13,408.13 662.04,410.12 661.75,413.93 C661.36,418.10 660.77,423.10 660.43,424.75 C659.89,427.35 658.21,427.72 657.34,425.43 C657.01,424.57 657.24,423.36 657.87,422.73 C659.27,421.33 659.37,419.66 658.00,420.50 C657.42,420.86 657.00,419.93 657.00,418.31 L 657.00 415.50 L 556.52 415.76 L 466.80 416.00 L 459.81 416.00 L 555.77 415.75 L 655.50 415.50 L 655.50 325.50 L 553.77 325.25 C553.87,325.24 553.96,325.24 554.06,325.25 L 655.50 325.50 ZM 321.42 659.87 C321.56,660.10 321.95,660.30 322.60,660.44 C320.67,660.36 319.11,660.24 318.20,660.12 C313.97,659.51 313.94,659.47 315.97,657.74 C317.53,656.42 317.88,655.31 317.39,653.24 C317.03,651.74 316.46,650.24 316.12,649.91 C315.78,649.59 309.65,648.33 302.50,647.10 C281.68,643.53 276.95,640.17 283.75,633.80 C289.62,628.31 292.50,627.50 306.22,627.48 C318.55,627.46 322.13,626.64 320.62,624.20 C320.29,623.66 318.44,622.93 316.51,622.57 C314.58,622.21 313.00,621.58 313.00,621.17 C313.00,620.77 311.80,620.34 310.33,620.22 C308.86,620.09 307.40,619.71 307.08,619.36 C306.76,619.01 313.25,619.01 321.50,619.34 C339.12,620.06 352.53,622.82 361.65,627.57 C365.44,629.57 368.45,631.92 370.86,634.68 C370.30,634.24 369.78,634.00 369.30,634.00 C368.49,634.00 368.18,634.49 368.59,635.14 C369.08,635.94 368.45,636.13 366.52,635.76 C362.01,634.90 357.18,636.75 355.50,640.00 C353.58,643.71 353.60,647.82 355.58,654.63 C353.69,648.21 349.10,641.62 345.07,639.54 C341.72,637.80 337.00,637.49 337.00,639.00 C337.00,639.55 337.38,640.00 337.84,640.00 C338.76,640.00 340.19,642.17 341.47,645.00 C339.87,642.06 337.79,639.78 335.72,639.05 C330.15,637.11 326.11,637.74 322.79,641.05 C319.84,644.01 319.76,644.33 320.21,651.39 C320.47,655.39 321.01,659.21 321.42,659.87 ZM 523.57 652.60 L 523.96 653.94 L 523.04 650.92 C520.36,642.07 514.47,635.51 508.59,634.82 C506.55,634.58 504.68,634.70 504.44,635.09 C504.20,635.48 505.35,637.23 506.99,638.99 C507.03,639.03 507.07,639.07 507.11,639.12 C501.53,633.34 491.35,634.53 488.50,641.35 C487.88,642.83 487.58,645.19 487.58,647.71 C487.49,647.50 487.40,647.31 487.28,647.13 C486.00,645.20 482.36,644.82 471.94,643.62 C452.70,641.41 448.00,639.89 448.00,635.90 C448.00,632.89 457.31,626.23 462.62,625.43 C468.37,624.57 503.15,626.36 505.19,627.62 C506.47,628.41 507.96,627.07 507.41,625.63 C507.13,624.91 505.43,624.26 503.62,624.20 C501.80,624.13 499.01,623.57 497.41,622.96 C495.81,622.35 490.00,621.43 484.50,620.92 C473.58,619.91 463.60,617.97 462.32,616.60 C461.67,615.91 474.44,616.15 486.60,616.81 C501.84,617.73 513.14,619.33 521.70,622.08 C533.24,626.00 540.54,632.30 545.05,641.78 C545.66,643.06 546.18,644.43 546.61,645.82 C547.31,648.08 547.75,650.40 547.87,652.36 C547.74,650.42 547.30,648.10 546.61,645.82 C546.20,644.49 545.70,643.19 545.12,642.00 C542.42,636.43 539.03,633.87 533.53,633.25 C528.21,632.65 525.23,634.21 523.42,638.55 C521.60,642.90 521.63,645.92 523.57,652.60 ZM 411.72 149.38 C417.17,146.24 421.23,139.45 421.75,132.61 C422.50,122.67 414.72,113.16 405.10,112.24 C397.34,111.49 393.30,112.68 388.47,117.14 C380.82,124.19 379.27,133.55 384.30,142.43 C387.09,147.35 390.56,149.92 396.67,151.58 C402.46,153.15 406.09,152.62 411.72,149.38 ZM 180.61 523.46 L 180.61 523.46 C189.55,520.48 197.93,516.21 204.85,510.94 C207.80,508.70 210.40,507.07 210.63,507.30 C210.87,507.54 207.99,510.83 204.23,514.63 C188.29,530.73 165.68,539.06 145.50,536.29 C135.76,534.95 117.99,526.95 111.73,521.08 C110.50,519.93 108.60,518.33 107.50,517.51 C106.40,516.70 110.00,517.84 115.50,520.06 C126.17,524.37 133.46,526.62 140.92,527.61 C147.64,528.64 154.13,528.79 160.27,528.03 C167.50,527.13 174.24,525.63 180.61,523.46 ZM 685.90 431.83 C688.01,431.09 689.09,427.13 688.80,420.99 C688.52,414.97 688.32,414.48 685.75,413.58 C681.74,412.17 677.62,414.31 675.62,417.64 C677.06,414.83 678.86,413.76 684.23,412.01 C687.07,411.09 689.54,409.89 689.72,409.35 C689.89,408.82 687.49,407.58 684.38,406.59 C683.13,406.20 682.01,405.79 681.00,405.35 C686.35,407.22 689.63,403.62 688.65,396.22 C687.90,390.58 687.68,388.58 686.62,387.90 C686.04,387.54 685.21,387.56 683.90,387.61 C683.80,387.61 683.70,387.61 683.59,387.62 C681.48,387.69 679.48,388.47 677.89,389.73 C683.14,385.23 692.49,386.47 696.06,394.32 C697.55,397.60 697.96,400.86 697.98,409.50 C698.00,422.12 696.68,426.00 691.10,429.73 C689.12,431.06 687.54,431.75 685.90,431.83 ZM 546.00 143.02 C550.98,139.87 543.00,120.64 535.00,116.50 C531.35,114.61 530.52,114.62 528.57,116.57 C524.11,121.03 530.16,136.70 538.37,141.96 C541.83,144.18 543.75,144.44 546.00,143.02 ZM 236.45 612.13 C228.97,601.98 222.33,588.95 218.42,576.19 C217.78,574.09 217.11,572.02 216.52,570.27 C215.16,565.25 214.79,562.22 216.08,564.34 C216.70,565.36 217.32,566.71 217.45,567.34 C220.16,580.06 248.51,624.00 254.00,624.00 C254.62,624.00 254.88,624.39 254.58,624.87 C254.29,625.34 254.87,626.47 255.87,627.38 C257.88,629.20 260.47,636.09 259.85,637.96 C259.58,638.76 258.61,638.48 256.86,637.10 C255.43,635.98 253.98,635.35 253.63,635.70 C253.29,636.05 253.00,634.82 253.00,632.98 C253.00,631.38 252.69,630.22 251.57,628.73 L 251.50 627.88 L 246.77 623.69 C245.94,622.95 245.10,622.16 244.27,621.33 C241.51,618.48 238.91,615.41 236.45,612.13 ZM 261.88 380.50 C257.72,378.33 251.98,372.90 252.02,371.17 C252.09,367.89 257.22,366.00 266.08,366.00 L 273.04 366.00 L 272.42 368.75 C270.49,377.41 268.60,382.99 267.62,382.95 C267.00,382.93 264.42,381.82 261.88,380.50 ZM 267.41 309.37 C267.59,309.21 267.79,309.05 268.00,308.88 C269.93,307.32 272.93,305.76 274.66,305.42 L 277.82 304.79 L 278.51 311.24 C278.89,314.79 278.82,319.93 278.35,322.65 C278.19,323.60 278.05,324.37 277.92,324.98 C277.46,326.66 276.84,327.53 276.14,327.09 C274.99,326.37 274.99,326.17 276.14,325.76 C277.85,325.15 277.11,324.30 274.50,323.85 C273.30,323.64 272.60,324.00 272.75,324.75 C273.20,327.02 269.90,326.05 266.86,323.02 C266.25,322.40 265.76,321.87 265.37,321.36 C264.59,320.00 264.17,318.45 264.14,316.71 C264.15,316.45 264.17,316.17 264.19,315.87 C264.23,315.33 264.28,314.84 264.36,314.39 C264.78,312.63 265.89,310.87 267.41,309.37 ZM 246.13 424.42 C241.31,418.93 239.22,413.64 241.03,411.46 C243.48,408.52 258.00,410.37 258.00,413.62 C258.00,415.10 251.29,429.00 250.57,429.00 C250.35,429.00 248.35,426.94 246.13,424.42 ZM 295.63 482.93 C300.97,487.12 311.00,484.52 311.00,478.95 C311.00,476.41 305.49,473.01 301.38,473.00 C297.71,473.00 293.00,476.37 293.00,479.00 C293.00,480.02 294.19,481.79 295.63,482.93 ZM 530.59 362.50 C530.13,362.85 529.85,363.46 529.60,364.45 C529.18,366.14 528.28,367.00 526.92,367.00 C525.62,367.00 525.14,367.42 525.61,368.17 C526.12,369.00 525.77,369.10 524.41,368.54 C523.36,368.09 521.71,367.77 520.75,367.80 C519.79,367.84 518.99,367.34 518.98,366.69 C518.97,365.88 518.70,365.93 518.12,366.83 C517.45,367.90 517.15,367.84 516.65,366.52 C516.29,365.59 515.51,365.18 514.85,365.59 C514.12,366.04 513.96,365.87 514.41,365.14 C514.81,364.49 515.62,364.26 516.20,364.62 C516.81,365.00 517.06,364.69 516.80,363.89 C516.54,363.13 515.70,362.50 514.92,362.50 C513.75,362.50 513.45,366.24 513.23,383.98 L 513.50 362.50 ZM 280.89 172.10 C281.72,167.87 283.09,162.44 284.69,157.30 C286.17,152.86 287.95,148.35 290.08,143.60 C286.38,152.11 283.53,160.86 284.36,161.70 C284.55,161.89 287.09,157.19 290.00,151.27 C291.40,148.41 292.80,145.70 294.21,143.13 C289.72,152.00 284.94,163.40 285.45,164.74 C285.74,165.49 285.53,165.83 284.99,165.49 C283.70,164.70 283.71,166.26 285.01,167.79 C285.56,168.45 285.73,168.78 285.39,168.54 C283.97,167.54 281.98,171.13 281.83,174.98 C281.74,177.24 281.24,179.35 280.72,179.67 C280.02,180.11 279.92,178.60 280.25,175.97 C280.45,174.67 280.66,173.38 280.89,172.10 ZM 414.73 624.21 C413.63,622.90 413.38,622.06 414.34,621.23 C414.69,621.09 415.18,621.01 415.81,621.02 C417.50,621.04 423.00,627.84 423.00,629.91 C423.00,630.51 422.33,631.00 421.50,631.00 C420.67,631.00 419.99,630.44 419.98,629.75 C419.97,628.92 419.65,629.00 419.00,630.00 C418.20,631.23 418.03,631.13 418.02,629.42 C418.01,628.28 416.89,626.30 415.53,625.03 C415.23,624.74 414.96,624.47 414.73,624.21 ZM 456.47 579.80 C451.39,582.27 449.44,582.53 448.42,580.86 C447.39,579.20 452.01,576.05 455.50,576.04 C460.94,576.02 461.31,577.45 456.47,579.80 ZM 311.00 466.22 C313.35,466.98 314.93,466.00 314.28,464.17 C313.38,461.62 311.87,459.97 310.96,460.53 C310.51,460.81 309.86,460.58 309.51,460.02 C308.54,458.44 306.00,458.82 306.00,460.54 C306.00,462.32 308.80,465.50 311.00,466.22 ZM 134.15 543.11 C132.09,541.81 133.21,538.54 135.84,538.17 C138.96,537.73 142.41,540.80 140.87,542.65 C139.62,544.17 136.19,544.40 134.15,543.11 ZM 357.81 484.04 C356.84,482.10 355.95,480.59 355.25,479.79 C353.91,478.25 354.03,477.75 356.44,474.89 C357.43,473.72 358.88,471.51 360.23,469.22 C358.46,472.73 357.33,475.73 357.65,476.24 C358.02,476.85 357.84,477.02 357.23,476.64 C355.18,475.37 355.51,478.54 357.81,484.04 ZM 570.68 112.96 C561.79,100.99 549.41,92.50 533.83,87.87 C549.56,92.55 561.81,100.88 570.68,112.96 ZM 368.71 527.59 C368.53,523.89 368.20,520.30 367.73,516.81 C367.64,516.09 367.54,515.37 367.44,514.66 C368.97,524.56 369.32,534.99 368.43,545.16 C368.90,539.49 369.00,533.62 368.71,527.59 ZM 350.14 263.95 C356.13,267.24 362.94,269.83 370.50,271.66 C362.36,269.69 356.24,267.40 350.14,263.95 ZM 360.02 579.25 C356.73,586.92 352.69,593.53 347.28,600.25 C352.44,593.83 356.70,586.82 360.02,579.25 ZM 362.75 464.51 C363.77,462.55 364.50,461.33 365.59,460.69 C366.27,460.28 367.09,460.10 368.21,460.11 C368.24,460.12 368.28,460.13 368.32,460.14 C367.37,460.15 366.62,460.30 365.96,460.65 C364.78,461.26 363.90,462.48 362.75,464.51 ZM 417.12 200.51 L 417.72 200.87 C425.31,205.41 435.66,209.06 447.46,211.58 C435.41,209.02 424.91,205.32 417.45,200.71 ZM 390.62 382.64 C391.42,383.49 392.08,384.19 392.71,384.76 C390.97,383.20 388.63,380.79 386.39,378.19 C388.11,380.00 389.63,381.60 390.62,382.64 ZM 439.28 416.67 C439.51,416.48 439.73,416.27 439.95,416.05 C440.92,415.08 441.34,413.78 441.25,412.31 C441.38,413.39 441.26,414.38 440.86,415.17 C440.59,415.70 440.06,416.20 439.28,416.67 ZM 364.14 499.94 C362.95,496.26 361.49,492.36 360.05,488.94 C361.62,492.39 362.98,496.08 364.14,499.94 ZM 679.89 430.00 C680.74,430.45 681.65,430.87 682.49,431.20 C681.70,430.91 680.84,430.51 679.89,430.00 C676.16,428.03 674.17,424.86 674.39,421.56 C674.33,422.66 674.50,423.80 674.96,424.90 C675.74,426.79 677.76,428.88 679.89,430.00 ZM 392.98 385.00 C393.99,385.88 394.94,386.41 396.29,386.70 C395.73,386.66 395.32,386.60 395.09,386.53 C394.69,386.40 393.94,385.85 392.98,385.00 ZM 376.95 644.73 C378.08,647.48 378.86,650.26 379.17,652.80 C378.82,650.29 378.01,647.44 376.95,644.73 ZM 489.22 657.34 C489.34,657.57 489.46,657.76 489.59,657.93 C489.42,657.72 489.25,657.46 489.09,657.16 C488.64,656.34 488.26,654.93 488.09,653.63 C488.36,655.10 488.74,656.41 489.22,657.34 ZM 412.06 386.17 L 418.00 385.70 L 418.00 385.76 ZM 455.47 413.25 L 456.00 415.83 L 455.46 413.26 C455.42,413.07 455.38,412.88 455.33,412.70 C455.39,412.91 455.43,413.09 455.47,413.25 ZM 441.60 432.13 C441.62,431.28 441.29,430.58 440.61,429.53 C440.61,429.53 440.62,429.54 440.63,429.55 C441.30,430.59 441.62,431.28 441.60,432.13 Z" fill="rgb(110,182,190)"/>
<path d="M 0.00 380.00 L 0.00 0.00 L 397.50 0.00 L 795.00 0.00 L 795.00 380.00 L 795.00 760.00 L 397.50 760.00 L 0.00 760.00 L 0.00 380.00 ZM 387.29 671.77 C389.89,670.60 391.53,668.97 392.54,666.57 C395.47,659.56 393.88,646.66 388.85,636.63 C387.23,633.40 386.04,630.66 386.20,630.54 C386.63,630.22 398.51,627.00 399.25,627.00 C399.59,627.00 400.80,628.32 401.95,629.93 C403.50,632.10 404.28,635.39 404.96,642.57 C406.16,655.26 408.65,660.33 415.78,664.62 C422.37,668.58 428.34,669.71 450.00,671.10 C471.75,672.49 545.31,671.71 552.22,670.01 C559.43,668.24 562.00,664.60 562.00,656.13 C562.00,637.97 552.81,622.39 537.25,614.18 C530.74,610.75 514.08,606.00 508.54,606.00 C503.96,606.00 503.69,605.18 506.91,601.11 C511.60,595.19 516.60,585.94 519.01,578.75 L 521.27 572.00 L 589.45 572.00 C664.60,572.00 663.13,572.11 672.64,565.74 C675.30,563.96 679.16,560.03 681.21,557.00 C687.79,547.32 688.00,545.34 688.00,492.37 L 688.00 445.16 L 692.86 443.55 C699.50,441.34 705.33,436.07 708.69,429.22 C711.38,423.74 711.50,422.88 711.49,409.00 C711.48,395.89 711.25,393.99 709.10,389.21 C706.17,382.69 699.30,376.44 693.09,374.63 L 688.50 373.29 L 687.96 346.40 C687.43,320.19 687.35,319.36 684.85,313.95 C680.48,304.50 672.79,297.52 663.94,294.98 C662.07,294.45 620.77,294.01 566.04,293.95 C513.97,293.89 470.92,293.54 470.37,293.17 C469.17,292.36 463.57,271.09 464.35,270.32 C464.65,270.01 469.54,268.75 475.20,267.51 C486.83,264.96 498.28,261.95 521.50,255.35 C544.25,248.88 555.07,243.17 564.82,232.50 C572.36,224.26 579.00,208.83 579.00,199.54 C579.00,196.96 579.72,196.10 583.75,193.82 C589.66,190.48 595.11,184.88 598.16,179.00 C603.95,167.85 598.90,136.31 587.90,115.00 C580.03,99.74 568.25,88.24 552.50,80.44 C536.08,72.30 532.50,71.75 492.00,71.02 C458.38,70.42 456.18,70.27 450.50,68.12 C436.67,62.90 424.61,60.85 404.50,60.32 C375.74,59.56 358.93,62.74 337.50,73.01 C298.76,91.56 272.91,127.62 265.47,173.47 C263.58,185.15 263.60,211.43 265.52,224.92 C266.33,230.65 266.89,235.43 266.75,235.54 C266.61,235.66 264.54,236.74 262.15,237.95 C256.15,240.98 249.50,247.34 247.05,252.40 C239.65,267.68 252.68,285.00 271.56,285.00 C275.04,285.00 275.87,285.38 276.34,287.17 C276.99,289.67 276.41,291.00 274.66,291.00 C271.94,291.00 259.29,297.98 256.30,301.13 C249.64,308.15 248.19,317.58 252.39,326.60 C255.48,333.23 263.57,338.89 272.30,340.53 C275.86,341.20 276.00,341.38 275.98,345.36 C275.98,347.64 275.64,350.00 275.23,350.61 C274.83,351.23 270.24,352.05 265.04,352.45 C251.29,353.51 244.24,356.88 240.41,364.20 C238.59,367.68 238.60,375.33 240.42,378.85 C242.64,383.14 249.85,389.21 257.25,393.02 C261.92,395.43 263.99,397.07 264.00,398.37 C264.00,399.83 263.51,400.09 261.75,399.58 C246.95,395.28 240.91,395.22 234.92,399.30 C229.85,402.75 227.72,406.35 227.23,412.30 C226.66,419.08 229.94,426.28 237.67,435.19 L 242.98 441.33 L 240.49 444.60 C239.12,446.40 234.79,452.74 230.86,458.68 C205.38,497.27 184.70,512.27 155.00,513.67 C145.74,514.11 143.47,513.87 135.72,511.58 C130.89,510.16 123.24,507.11 118.72,504.82 C105.85,498.28 96.79,499.40 91.50,508.18 C87.98,514.03 89.20,530.62 94.25,545.50 C109.98,591.90 155.49,623.51 218.00,631.47 C224.88,632.35 232.37,633.30 234.65,633.58 L 238.79 634.09 L 239.51 643.30 C240.53,656.50 243.31,661.93 251.71,667.13 C260.67,672.67 276.06,673.87 335.50,673.65 C378.28,673.49 383.91,673.29 387.29,671.77 ZM 321.42 659.87 C321.01,659.21 320.47,655.39 320.21,651.39 C319.76,644.33 319.84,644.01 322.79,641.05 C326.11,637.74 330.15,637.11 335.72,639.05 C339.96,640.53 344.20,648.52 344.37,655.36 L 344.50 660.50 L 333.33 660.78 C325.47,660.98 321.94,660.71 321.42,659.87 ZM 355.58 654.63 C353.60,647.82 353.58,643.71 355.50,640.00 C357.18,636.75 362.01,634.90 366.52,635.76 C368.45,636.13 369.08,635.94 368.59,635.14 C368.18,634.49 368.49,634.00 369.30,634.00 C372.78,634.00 379.06,646.96 379.33,654.68 L 379.50 659.50 L 368.33 659.78 L 357.16 660.06 L 355.58 654.63 ZM 489.22 657.34 C487.40,653.79 486.99,644.95 488.50,641.35 C491.37,634.47 501.69,633.32 507.24,639.25 C510.10,642.32 513.00,650.34 513.00,655.18 L 513.00 658.00 L 503.75 658.01 C498.66,658.02 493.53,658.29 492.34,658.61 C490.84,659.01 489.88,658.62 489.22,657.34 ZM 523.57 652.60 C521.63,645.92 521.60,642.90 523.42,638.55 C525.23,634.21 528.21,632.65 533.53,633.25 C539.03,633.87 542.42,636.43 545.12,642.00 C547.88,647.70 548.84,655.86 546.89,657.09 C546.12,657.57 540.92,657.98 535.32,657.98 L 525.14 658.00 L 523.57 652.60 ZM 366.98 615.78 C362.42,613.44 355.92,611.18 350.48,610.03 C345.54,608.99 341.40,608.11 341.27,608.07 C341.14,608.03 343.85,604.51 347.28,600.25 C354.95,590.72 359.87,581.43 363.80,569.00 C372.00,543.11 370.20,509.98 359.35,487.47 C355.72,479.93 354.78,475.13 357.23,476.64 C357.84,477.02 358.02,476.85 357.65,476.24 C357.29,475.65 358.83,471.76 361.08,467.59 C365.74,458.95 365.25,459.13 377.50,461.65 C383.02,462.78 390.51,463.29 401.69,463.28 L 417.88 463.26 L 418.19 504.38 L 418.50 545.50 L 421.39 551.75 C424.68,558.89 430.30,564.56 438.16,568.67 C443.23,571.33 444.29,571.49 459.25,571.82 L 475.01 572.18 L 470.25 576.16 C451.35,591.98 417.05,608.94 389.00,616.32 C374.90,620.03 375.29,620.04 366.98,615.78 ZM 456.47 579.80 C461.31,577.45 460.94,576.02 455.50,576.04 C452.01,576.05 447.39,579.20 448.42,580.86 C449.44,582.53 451.39,582.27 456.47,579.80 ZM 211.82 616.01 C170.48,608.30 141.88,592.73 123.30,567.83 C113.83,555.14 113.67,554.68 120.88,561.00 C143.63,580.91 172.22,591.65 203.80,592.15 C209.96,592.25 215.00,592.37 215.00,592.42 C215.00,593.65 220.77,607.69 222.87,611.58 C224.46,614.51 225.51,617.15 225.21,617.45 C224.44,618.23 222.75,618.04 211.82,616.01 ZM 459.11 539.75 C456.79,538.54 456.72,538.15 456.91,528.00 C457.03,522.22 457.46,517.15 457.89,516.72 C458.31,516.29 464.48,516.06 471.58,516.22 L 484.50 516.50 L 484.50 528.50 L 484.50 540.50 L 473.00 540.75 C465.28,540.92 460.71,540.59 459.11,539.75 ZM 503.22 539.44 C501.18,538.02 501.00,537.08 501.00,528.14 C501.00,521.90 501.43,517.97 502.20,517.20 C503.00,516.40 507.42,516.00 515.50,516.00 C523.58,516.00 528.00,516.40 528.80,517.20 C529.57,517.97 530.00,521.98 530.00,528.50 C530.00,535.02 529.57,539.03 528.80,539.80 C526.89,541.71 506.04,541.41 503.22,539.44 ZM 546.25 539.97 C544.11,539.11 544.00,538.53 544.00,528.14 C544.00,519.10 544.27,517.11 545.58,516.61 C546.45,516.27 552.04,516.00 558.00,516.00 C563.96,516.00 569.55,516.27 570.42,516.61 C571.72,517.11 572.00,519.08 572.00,527.91 C572.00,534.89 571.58,539.02 570.80,539.80 C569.37,541.23 549.72,541.36 546.25,539.97 ZM 630.00 539.71 C627.61,538.50 627.49,537.98 627.22,528.37 C627.00,520.61 627.26,518.03 628.36,517.12 C629.33,516.31 633.72,516.03 642.14,516.22 L 654.50 516.50 L 654.79 526.88 C655.17,540.76 654.95,541.01 642.10,540.99 C636.38,540.98 631.49,540.46 630.00,539.71 ZM 599.01 536.00 C590.05,535.57 588.47,535.24 588.19,533.75 C587.88,532.17 588.94,532.00 599.32,532.00 C608.85,532.00 610.89,532.27 611.39,533.58 C611.73,534.45 612.00,535.30 612.00,535.47 C612.00,536.32 608.59,536.46 599.01,536.00 ZM 589.77 529.86 C586.93,528.09 590.83,527.08 600.53,527.08 C608.81,527.08 611.00,527.37 611.00,528.48 C611.00,529.55 608.71,529.94 600.90,530.18 C595.34,530.36 590.33,530.21 589.77,529.86 ZM 592.75 525.22 C589.35,524.78 589.13,522.26 592.42,521.43 C595.54,520.65 598.23,521.18 598.73,522.68 C599.27,524.30 596.09,525.65 592.75,525.22 ZM 603.19 523.25 C603.59,521.14 607.95,520.30 609.07,522.11 C610.27,524.05 609.22,525.00 605.87,525.00 C603.54,525.00 602.93,524.60 603.19,523.25 ZM 459.86 503.43 C457.61,502.26 457.22,501.26 456.67,495.30 C455.97,487.74 456.73,480.89 458.40,479.77 C459.72,478.88 481.17,478.75 483.42,479.61 C484.73,480.11 484.99,482.05 484.97,490.86 C484.95,497.64 484.49,502.08 483.72,503.10 C482.11,505.22 463.75,505.47 459.86,503.43 ZM 505.59 504.01 C503.98,503.50 502.30,502.50 501.85,501.79 C500.53,499.71 500.82,481.58 502.20,480.20 C503.00,479.40 507.44,479.00 515.58,479.00 C525.69,479.00 527.99,479.28 529.13,480.65 C531.14,483.08 531.04,500.41 529.00,502.38 C527.16,504.16 509.87,505.36 505.59,504.01 ZM 546.25 503.84 C544.13,502.76 544.00,502.09 544.00,491.88 C544.00,482.22 544.21,480.96 545.93,480.04 C547.99,478.93 567.76,478.59 570.42,479.61 C572.78,480.51 572.74,501.14 570.37,503.11 C568.24,504.87 549.42,505.44 546.25,503.84 ZM 628.20 502.80 C627.43,502.03 627.00,498.02 627.00,491.50 C627.00,484.98 627.43,480.97 628.20,480.20 C629.85,478.55 652.15,478.55 653.80,480.20 C654.57,480.97 655.00,484.98 655.00,491.50 C655.00,498.02 654.57,502.03 653.80,502.80 C653.00,503.60 648.69,504.00 641.00,504.00 C633.31,504.00 629.00,503.60 628.20,502.80 ZM 591.06 501.12 C590.48,500.03 590.00,497.11 590.00,494.64 C590.00,488.46 591.84,486.82 598.37,487.20 C603.41,487.49 603.51,487.56 603.83,490.92 C604.12,493.98 603.65,495.66 601.03,501.00 C600.60,501.88 598.60,502.63 596.21,502.80 C592.97,503.05 591.91,502.70 591.06,501.12 ZM 600.14 499.00 C600.68,499.00 600.98,497.31 600.81,495.25 C600.54,492.02 600.13,491.46 597.82,491.19 C595.95,490.97 594.81,491.49 594.07,492.87 C592.33,496.12 594.86,500.58 597.83,499.49 C598.56,499.22 599.60,499.00 600.14,499.00 ZM 606.64 496.31 C606.29,495.95 606.00,492.14 606.00,487.83 C606.00,480.37 606.11,480.00 608.25,480.02 C609.49,480.02 611.16,480.45 611.97,480.96 C613.24,481.76 613.22,481.98 611.79,482.53 C610.61,482.98 609.95,484.98 609.45,489.59 C608.79,495.78 608.00,497.67 606.64,496.31 ZM 295.63 482.93 C294.19,481.79 293.00,480.02 293.00,479.00 C293.00,476.37 297.71,473.00 301.38,473.00 C305.49,473.01 311.00,476.41 311.00,478.95 C311.00,484.52 300.97,487.12 295.63,482.93 ZM 311.00 466.22 C308.80,465.50 306.00,462.32 306.00,460.54 C306.00,458.82 308.54,458.44 309.51,460.02 C309.86,460.58 310.51,460.81 310.96,460.53 C311.87,459.97 313.38,461.62 314.28,464.17 C314.93,466.00 313.35,466.98 311.00,466.22 ZM 457.85 465.71 C456.82,464.68 456.62,461.89 457.00,453.93 L 457.50 443.50 L 471.28 443.22 L 485.06 442.94 L 484.78 454.72 L 484.50 466.50 L 471.85 466.78 C462.28,466.99 458.87,466.73 457.85,465.71 ZM 502.57 465.43 C501.37,464.22 501.00,461.67 501.00,454.50 C501.00,441.93 500.92,442.00 515.87,442.00 C523.66,442.00 528.00,442.40 528.80,443.20 C530.30,444.70 530.44,462.32 528.96,465.07 C528.03,466.81 526.77,467.00 516.04,467.00 C506.56,467.00 503.82,466.68 502.57,465.43 ZM 545.75 465.92 C544.26,465.05 544.00,463.36 544.00,454.65 C544.00,448.01 544.42,443.98 545.20,443.20 C546.46,441.94 567.40,441.45 570.42,442.61 C571.72,443.11 572.00,445.08 572.00,453.91 C572.00,460.89 571.58,465.02 570.80,465.80 C569.30,467.30 548.29,467.40 545.75,465.92 ZM 631.00 463.19 C631.00,460.80 646.52,443.59 649.04,443.18 C652.01,442.70 651.41,444.83 647.25,449.45 C645.19,451.75 641.34,456.19 638.69,459.31 C633.83,465.07 631.00,466.49 631.00,463.19 ZM 591.91 462.40 C590.76,461.01 591.02,460.43 593.80,458.15 C595.57,456.69 597.01,455.16 597.01,454.74 C597.00,454.32 595.58,452.70 593.84,451.15 C592.00,449.51 590.98,447.84 591.40,447.16 C592.53,445.33 594.45,445.79 597.00,448.50 C598.29,449.88 599.87,451.00 600.50,451.00 C601.13,451.00 602.71,449.88 604.00,448.50 C606.65,445.68 608.52,445.31 609.34,447.45 C609.67,448.31 608.69,449.93 606.95,451.39 C605.33,452.75 604.00,454.28 604.00,454.77 C604.00,455.26 605.34,456.86 606.97,458.32 C608.79,459.94 609.72,461.56 609.37,462.48 C608.58,464.53 608.38,464.47 603.74,460.80 L 599.70 457.60 L 597.03 460.80 C593.95,464.48 593.71,464.56 591.91,462.40 ZM 645.10 463.10 C642.98,461.73 644.58,458.80 647.25,459.18 C648.72,459.39 649.50,460.19 649.50,461.49 C649.50,463.68 647.27,464.50 645.10,463.10 ZM 429.50 441.85 C426.17,440.02 425.00,437.82 425.00,433.38 C425.00,429.82 425.48,428.80 427.97,427.02 C430.58,425.17 431.43,425.04 434.97,425.99 C437.26,426.61 439.68,428.10 440.56,429.44 C441.92,431.53 441.93,432.22 440.67,435.24 C439.24,438.67 434.70,443.03 432.62,442.97 C432.00,442.95 430.60,442.45 429.50,441.85 ZM 679.89 430.00 C677.76,428.88 675.74,426.79 674.96,424.90 C672.30,418.49 679.18,411.27 685.75,413.58 C688.32,414.48 688.52,414.97 688.80,420.99 C689.13,427.88 687.72,432.03 685.08,431.96 C684.21,431.93 681.88,431.05 679.89,430.00 ZM 431.27 418.29 C427.93,417.65 425.00,413.31 425.00,408.99 C425.00,404.68 426.45,403.12 431.16,402.37 C433.93,401.93 434.98,402.34 437.27,404.74 C441.33,409.01 442.42,413.58 439.95,416.05 C438.88,417.12 437.59,418.00 437.08,418.00 C436.58,418.00 435.56,418.16 434.83,418.36 C434.10,418.56 432.50,418.53 431.27,418.29 ZM 455.47 413.25 C455.15,411.74 453.85,407.80 452.58,404.50 C450.28,398.56 450.26,398.17 450.68,364.00 C450.91,345.02 451.31,328.49 451.57,327.25 L 452.04 324.99 L 553.77 325.25 L 655.50 325.50 L 655.50 370.50 L 655.50 415.50 L 555.77 415.75 L 456.04 416.01 L 455.47 413.25 ZM 504.50 395.00 L 504.50 382.50 L 493.00 382.50 L 481.50 382.50 L 481.22 393.86 C481.02,401.51 481.32,405.68 482.12,406.64 C483.03,407.74 485.68,408.00 493.90,407.78 L 504.50 407.50 L 504.50 395.00 ZM 535.77 385.25 L 535.50 362.50 L 524.50 362.50 L 513.50 362.50 L 513.23 383.98 C513.08,395.79 513.18,406.02 513.45,406.73 C513.80,407.65 516.96,408.00 524.99,408.00 L 536.04 408.00 L 535.77 385.25 ZM 566.89 406.63 C567.70,405.65 567.95,395.03 567.76,369.38 L 567.50 333.50 L 556.00 333.50 L 544.50 333.50 L 544.24 369.93 C544.03,398.42 544.25,406.54 545.24,407.17 C547.50,408.61 565.62,408.16 566.89,406.63 ZM 597.42 407.39 C598.79,406.87 599.00,403.98 599.00,385.36 L 599.00 363.94 L 587.25 364.22 L 575.50 364.50 L 575.31 384.43 C575.20,395.85 575.54,405.14 576.10,406.18 C576.93,407.74 578.40,408.00 586.45,408.00 C591.61,408.00 596.55,407.73 597.42,407.39 ZM 628.42 407.39 C629.71,406.90 630.00,405.00 630.00,396.95 C630.00,391.54 629.66,386.98 629.25,386.80 C628.84,386.63 623.66,386.63 617.75,386.81 L 607.00 387.13 L 607.00 396.36 C607.00,402.21 607.44,406.04 608.20,406.80 C609.45,408.05 625.47,408.52 628.42,407.39 ZM 678.34 404.07 C674.73,401.86 673.58,399.20 674.48,395.10 C675.40,390.92 679.24,387.76 683.59,387.62 C687.61,387.49 687.46,387.25 688.65,396.22 C689.78,404.78 685.21,408.26 678.34,404.07 ZM 390.62 382.64 C388.35,380.25 383.28,374.93 379.35,370.83 C372.75,363.94 372.04,362.76 370.00,355.43 C366.64,343.34 361.57,330.34 352.30,310.04 C341.50,286.40 334.00,264.45 334.00,256.49 C334.00,252.77 334.04,252.73 335.98,254.48 C337.06,255.46 337.67,256.73 337.32,257.29 C336.96,257.88 337.19,258.00 337.86,257.59 C338.52,257.18 341.98,258.80 345.76,261.27 C353.43,266.29 360.41,269.22 370.50,271.66 C378.05,273.49 400.87,273.98 432.93,273.00 L 449.36 272.50 L 451.60 280.50 C455.03,292.72 455.06,292.60 447.87,293.87 C432.83,296.52 422.47,306.34 419.04,321.21 C418.49,323.57 418.04,339.05 418.02,355.60 L 418.00 385.70 L 409.75 386.35 C395.21,387.48 395.19,387.47 390.62,382.64 ZM 453.00 232.94 C420.54,229.42 403.18,220.83 394.54,204.00 C391.06,197.24 391.02,197.29 401.17,196.81 L 410.40 196.36 L 417.45 200.71 C434.95,211.51 469.13,217.37 501.00,215.03 C522.83,213.43 542.16,209.94 556.41,205.03 C564.35,202.30 565.18,202.37 564.43,205.75 C563.25,211.14 558.05,220.56 554.31,224.10 C550.24,227.94 547.58,228.75 529.72,231.65 C518.64,233.45 465.88,234.34 453.00,232.94 ZM 584.68 162.00 C584.36,161.18 583.66,158.93 583.12,157.00 C579.76,145.16 572.10,129.43 566.15,122.12 C558.43,112.64 552.83,108.10 542.50,102.94 C527.39,95.40 524.01,94.89 483.00,94.01 C453.53,93.39 446.74,92.97 443.00,91.58 C440.52,90.65 433.77,88.69 428.00,87.22 C418.36,84.76 415.91,84.55 398.00,84.57 C380.44,84.59 377.38,84.86 367.22,87.25 C348.39,91.68 332.86,99.18 320.78,109.67 C307.86,120.89 299.10,132.73 290.00,151.27 C287.09,157.19 284.55,161.89 284.36,161.70 C283.35,160.69 287.73,148.12 292.48,138.37 C304.10,114.54 320.19,98.30 343.80,86.54 C372.11,72.46 411.36,70.33 443.28,81.14 L 452.50 84.27 L 489.50 84.98 C523.38,85.63 527.12,85.88 533.83,87.87 C562.45,96.38 580.30,117.90 585.46,150.12 C586.65,157.57 586.11,165.79 584.68,162.00 ZM 409.00 130.23 C403.78,128.51 402.10,121.44 406.22,118.56 C410.95,115.25 416.00,117.89 416.00,123.67 C416.00,127.58 412.08,131.25 409.00,130.23 Z" fill="rgb(249,251,251)"/>
</g>
</svg>